<svg id="图层_1" data-name="图层 1" xmlns="http://www.w3.org/2000/svg" xmlns:xlink="http://www.w3.org/1999/xlink" viewBox="0 0 150 150"><defs><style>.cls-1{fill:url(#未命名的渐变_4);}.cls-2{fill:#fff;}</style><linearGradient id="未命名的渐变_4" x1="74.95" y1="1.03" x2="74.95" y2="151.03" gradientTransform="matrix(1, 0, 0, -1, 0, 151.28)" gradientUnits="userSpaceOnUse"><stop offset="0" stop-color="#c05cfc"/><stop offset="1" stop-color="#fd6189"/></linearGradient></defs><title>icon</title><path class="cls-1" d="M119.95,150.25h-90a30.09,30.09,0,0,1-30-30v-90a30.09,30.09,0,0,1,30-30h90a30.09,30.09,0,0,1,30,30v90A30.09,30.09,0,0,1,119.95,150.25Z"/><path class="cls-2" d="M72,42.25a5,5,0,0,1,2.7-.8,5.22,5.22,0,0,1,3.9,1.7,81,81,0,0,1,11.2-5.3,39.3,39.3,0,0,0-15-2.9,43.19,43.19,0,0,0-10.2,1.3A89.37,89.37,0,0,1,72,42.25Z"/><path class="cls-2" d="M80.15,46.65v.2a6,6,0,0,1-.7,2.7c1.4,1.5,2.7,3.1,4.1,4.8a80.63,80.63,0,0,1,15.3,28.8,5.21,5.21,0,0,1,3.6,3,95.75,95.75,0,0,0,11.6-1.3,38.48,38.48,0,0,0,1.2-9.7,40.17,40.17,0,0,0-20.6-35.1A95.83,95.83,0,0,0,80.15,46.65Z"/><path class="cls-2" d="M47.75,65.15a5,5,0,0,1,2.7-.7,5.08,5.08,0,0,1,1.7.3,90.71,90.71,0,0,1,17.7-16,5.66,5.66,0,0,1-.3-1.8,5.08,5.08,0,0,1,.3-1.7,88.79,88.79,0,0,0-9.4-7.5,40.56,40.56,0,0,0-20.5,17.8A62.18,62.18,0,0,0,47.75,65.15Z"/><path class="cls-2" d="M56.75,73a68.29,68.29,0,0,0,36.1,13.1,5.08,5.08,0,0,1,2.4-2.4,77.55,77.55,0,0,0-14.5-27c-1.4-1.7-2.7-3.3-4.1-4.7a4.67,4.67,0,0,1-1.7.3,4.84,4.84,0,0,1-2.6-.7,88,88,0,0,0-17.2,15.5,5.38,5.38,0,0,1,.8,2.8,5.45,5.45,0,0,1-.5,2.2C55.85,72.25,56.25,72.65,56.75,73Z"/><path class="cls-2" d="M97.15,93.65a5.75,5.75,0,0,1-3.1-1.3c-11.2,4.8-23.4,17-28.1,22a38,38,0,0,0,8.9,1,39.66,39.66,0,0,0,22.1-6.6A54.57,54.57,0,0,0,97.15,93.65Z"/><path class="cls-2" d="M102.75,89.85a4.75,4.75,0,0,1-2,2.8,57.44,57.44,0,0,1,.3,13.1,38.87,38.87,0,0,0,11.7-17A89.83,89.83,0,0,1,102.75,89.85Z"/><path class="cls-2" d="M71.85,103.45c7.1-6.5,13.7-11.2,19.5-13.9a73.4,73.4,0,0,1-37-13.8c-.6-.4-1.1-.8-1.6-1.2a5.93,5.93,0,0,1-2.3.5,5.07,5.07,0,0,1-1.3-.2A72.86,72.86,0,0,0,39.95,95,40.43,40.43,0,0,0,62,113.25C63.55,111.65,67.15,107.75,71.85,103.45Z"/><path class="cls-2" d="M46,72.85a5.29,5.29,0,0,1-.9-3,4.67,4.67,0,0,1,.3-1.7,64.81,64.81,0,0,1-7.4-8.8,40.39,40.39,0,0,0-3.3,15.9,38.79,38.79,0,0,0,2.9,14.9A75.18,75.18,0,0,1,46,72.85Z"/></svg>