<?xml version="1.0" encoding="utf-8"?>
<!-- Generator: Adobe Illustrator 22.0.1, SVG Export Plug-In . SVG Version: 6.00 Build 0)  -->
<svg version="1.1" id="图层_1" xmlns="http://www.w3.org/2000/svg" xmlns:xlink="http://www.w3.org/1999/xlink" x="0px" y="0px"
	 viewBox="0 0 110 110" style="enable-background:new 0 0 110 110;" xml:space="preserve">
<style type="text/css">
	.st0{fill:url(#SVGID_1_);}
	.st1{opacity:0.25;clip-path:url(#SVGID_3_);fill:#F9C68E;}
	.st2{fill:#EFEFF0;}
	.st3{fill:#FFFFFF;}
</style>
<g>
	<linearGradient id="SVGID_1_" gradientUnits="userSpaceOnUse" x1="55.0298" y1="110" x2="55.0298" y2="-9.094947e-13">
		<stop  offset="0" style="stop-color:#E94908"/>
		<stop  offset="4.641259e-02" style="stop-color:#EA5006"/>
		<stop  offset="0.2601" style="stop-color:#EC6700"/>
		<stop  offset="0.4837" style="stop-color:#EE7700"/>
		<stop  offset="0.7221" style="stop-color:#F08000"/>
		<stop  offset="1" style="stop-color:#F08300"/>
	</linearGradient>
	<path class="st0" d="M92.4,110H17.7C8,110,0,102.1,0,92.4V17.6C0,7.9,8,0,17.7,0h74.8c9.7,0,17.6,7.9,17.6,17.6v74.8
		C110,102.1,102.1,110,92.4,110z"/>
	<g>
		<defs>
			<path id="SVGID_2_" d="M92.4,110H17.7C8,110,0,102.1,0,92.4V17.6C0,7.9,8,0,17.7,0h74.8c9.7,0,17.6,7.9,17.6,17.6v74.8
				C110,102.1,102.1,110,92.4,110z"/>
		</defs>
		<clipPath id="SVGID_3_">
			<use xlink:href="#SVGID_2_"  style="overflow:visible;"/>
		</clipPath>
		<path class="st1" d="M113,55c0-3.6,0.7-4.6,0-8L81.6,32l-49.3-0.3c0,0-5.2-0.2-5.2,6.8v33.5L23,72l0.7,1.2c1.5,2.6,3.3,5,5.2,7.3
			l24.8,29.1c0.9,0.9,2,1.4,3.3,1.4c0,0,2,0,2,0c14.6,0,41.6,5.7,50-5C116,97,113,70.1,113,55z"/>
	</g>
	<path class="st2" d="M86,69.3v1.6c0,1.5-1.2,2.7-2.9,2.7H25.4c-1.6,0-2.9-1.2-2.9-2.7v-1.6h26.1c0.2,0.6,0.9,1.1,1.6,1.1h8.2
		c0.7,0,1.3-0.5,1.6-1.1H86z"/>
	<path class="st3" d="M86,69.3c0,1.5-1.3,2.7-2.9,2.7H25.4c-1.6,0-2.9-1.2-2.9-2.7h26.1c0.2,0.6,0.9,1.1,1.6,1.1h8.2
		c0.7,0,1.3-0.5,1.6-1.1H86z"/>
	<path class="st2" d="M78.9,31.1H29.6c-2.1,0-3.8,1.7-3.8,3.8v34.4h57V35C82.8,32.9,81,31.1,78.9,31.1z M79,67.4h-5.2h-5.7H29.4
		V34.7H79V67.4z"/>
	<path class="st3" d="M65,53.9c0,3.3-2.7,5.9-5.9,5.9c-0.3,0-0.7,0-1-0.1l-11.5,0.1c0,0-0.1,0-0.1,0c0,0,0,0,0,0l-0.1,0l0,0
		c-2.8-0.1-5.1-2.4-5.1-5.2c0-2.3,1.4-4.2,3.4-4.9c0.2-3.1,2.8-5.5,5.9-5.5c0.3,0,0.6,0,0.9,0.1c1.1-1.4,2.8-2.2,4.6-2.2
		c3.3,0,5.9,2.7,5.9,5.9c0,0.3,0,0.5-0.1,0.8C63.8,49.7,65,51.6,65,53.9z M55.6,49.4h-1.5v1.5h1.5V49.4z M58.2,49.4h-1.5v4.3h-6.1
		v-4.3h-1.5V57h0.8h0.7h6.1h0.8h0.7L58.2,49.4L58.2,49.4z M50.6,54.4h6.1v1.1h-6.1V54.4z"/>
</g>
</svg>
